# xmcd CD database file
#
# Track frame offsets:
#	150
#	9449
#	30540
#	67348
#	94647
#	103860
#	133845
#	163377
#	200297
#	224192
#	270870
#
# Disc length: 3687 seconds
#
# Revision: 0
# Processed by: cddbd v1.5.1PL0 Copyright (c) Steve Scherf et al.
# Submitted via: CDex 1.51
#
DISCID=a30e650b
DTITLE=Andrew Rathbun - True Stories
DYEAR=2000
DGENRE=Jazz
TTITLE0=Vignette I
TTITLE1=True Stories part I
TTITLE2=True Stories part II
TTITLE3=True Stories part III
TTITLE4=Vignette II
TTITLE5=Another Aspect
TTITLE6=Cards
TTITLE7=Bluejays
TTITLE8=Majority
TTITLE9=Sche Who Chose (The Lies That Daylight Told Us)
TTITLE10=Vignette III
EXTD=YEAR: 2000
EXTT0=
EXTT1=
EXTT2=
EXTT3=
EXTT4=
EXTT5=
EXTT6=
EXTT7=
EXTT8=
EXTT9=
EXTT10=
PLAYORDER=
